<svg xmlns="http://www.w3.org/2000/svg" viewBox="0 0 64 64" role="img" aria-label="Math Woods">
  <defs>
    <linearGradient id="sky" x1="12" x2="52" y1="4" y2="58" gradientUnits="userSpaceOnUse">
      <stop offset="0" stop-color="#fff9c7"/>
      <stop offset=".54" stop-color="#f8f3b0"/>
      <stop offset="1" stop-color="#e5ec6b"/>
    </linearGradient>
    <linearGradient id="wood" x1="16" x2="50" y1="14" y2="52" gradientUnits="userSpaceOnUse">
      <stop offset="0" stop-color="#d9ea37"/>
      <stop offset=".56" stop-color="#76ad3d"/>
      <stop offset="1" stop-color="#2d7b39"/>
    </linearGradient>
    <linearGradient id="fieldBack" x1="0" x2="64" y1="39" y2="56" gradientUnits="userSpaceOnUse">
      <stop offset="0" stop-color="#d8e94a"/>
      <stop offset=".55" stop-color="#8fc044"/>
      <stop offset="1" stop-color="#398b3d"/>
    </linearGradient>
    <linearGradient id="fieldFront" x1="2" x2="62" y1="45" y2="64" gradientUnits="userSpaceOnUse">
      <stop offset="0" stop-color="#cfe244"/>
      <stop offset=".5" stop-color="#9cc640"/>
      <stop offset="1" stop-color="#347f36"/>
    </linearGradient>
    <linearGradient id="path" x1="29" x2="39" y1="43" y2="64" gradientUnits="userSpaceOnUse">
      <stop offset="0" stop-color="#fff3a4"/>
      <stop offset=".72" stop-color="#eadb75"/>
      <stop offset="1" stop-color="#d6c45f"/>
    </linearGradient>
    <clipPath id="rounded">
      <rect width="64" height="64" rx="15"/>
    </clipPath>
  </defs>
  <g clip-path="url(#rounded)">
    <rect width="64" height="64" fill="url(#sky)"/>
    <path fill="url(#wood)" d="M8.7 43.2c.5-4 3.6-6.4 6.7-5.7 1.3-4.6 4.8-7.2 8-5.1 1.4-6.3 6.3-8.3 9.2-3.9 2.4-8.4 8.9-8.4 11.2-.1 3.2-3.9 8.4-1.1 9 5.4 3.2-.8 6.2 1.9 6.6 5.7 2.7-.2 4.6 1.6 5.1 3.7V50H8.7Z" opacity=".78"/>
    <path fill="url(#wood)" d="M15 39.9c0-7.2 3.6-13.3 7.7-13.3 4.2 0 7.7 6.1 7.7 13.3 0 5.5-2.3 9.5-5.8 10.7h-3.8C17.3 49.4 15 45.4 15 39.9Z"/>
    <path fill="url(#wood)" d="M30.1 34.8c0-9.4 4.6-16.8 10-16.8 5.5 0 10.1 7.4 10.1 16.8 0 7.2-3 12.4-7.7 13.9h-4.7c-4.7-1.5-7.7-6.7-7.7-13.9Z"/>
    <path fill="url(#wood)" d="M45.5 40.8c0-6.7 3.3-12 7.4-12 4.2 0 7.5 5.3 7.5 12 0 5.2-2.3 9-5.8 10.2h-3.2c-3.6-1.2-5.9-5-5.9-10.2Z"/>
    <path fill="#2d6f32" d="M22.4 48.6V36.8m0 5.6-2.7-4m2.7 4 2.4-3.7m15.3 10.5V29.3m0 8.4-4-6m4 6 3.5-5.5M53 49V37.6m0 5.3-3-3.7m3 3.7 2.7-3.6" stroke="#2d6f32" stroke-linecap="round" stroke-linejoin="round" stroke-width="1.3"/>
    <path fill="url(#fieldBack)" d="M0 42.2c10.4-1.1 19.3-.8 29.1 2.2 10.7 3.3 22.8-2.5 34.9-2.1V64H0Z"/>
    <path fill="url(#fieldFront)" d="M0 53.7c9.3-5.4 19.1-8.3 31.3-6.4 9.4 1.5 17.9 6.6 32.7.8V64H0Z"/>
    <path fill="url(#path)" d="M32 43.7c2.2 1.1 3.7 2 4.2 3.3.7 1.9-.6 3.3-3.6 5.2-4 2.6-5.8 5.7-5.2 11.8h7.3c-1.9-5.8-.1-8.1 3.5-10.6 3.7-2.6 4.1-5.2 2.2-7.4-1.4-1.6-4.1-2.7-7.1-4Z"/>
  </g>
</svg>
